<?xml version="1.0" encoding="utf-8"?>
<!-- Generator: Adobe Illustrator 25.4.1, SVG Export Plug-In . SVG Version: 6.00 Build 0)  -->
<svg version="1.1" id="Layer_1" xmlns="http://www.w3.org/2000/svg" xmlns:xlink="http://www.w3.org/1999/xlink" x="0px" y="0px"
	 viewBox="0 0 572.8 625.1" enable-background="new 0 0 572.8 625.1" xml:space="preserve">
<path fill="#C86C6D" d="M572.8,40.2c-0.7,3.2-1.2,6.4-2.1,9.5c-3.4,10.9-9.7,20-17.4,28.2c-9.9,10.7-21.4,19.5-32.8,28.5
	c-7.9,6.2-15.6,12.6-23.5,18.9c-0.8,0.7-1,1.2-0.6,2.2c4,8.9,2.2,17.1-3.5,24.6c-2.5,3.2-5.2,6.2-8.9,8.1
	c-6.2,3.1-12.5,0.4-14.1-6.4c-1.2-4.8-0.3-9.4,1.4-13.9c1.8-5,5.1-9.2,8.2-13.4c0.5-0.7,1-1.3,1.7-2.1c-1.5-1.4-2.9-2.8-4.5-4.2
	c-7.2-6.2-15.3-11.1-23.4-16.2c-8.6-5.4-17.2-10.8-25.5-16.6c-7.6-5.3-14.1-11.9-19-19.9c-3.6-5.8-5.8-12.2-6.5-19
	c0-0.5-0.2-1-0.3-1.4c0-2.3,0-4.7,0-7c0.1-0.4,0.2-0.7,0.3-1.1c0.9-3.9,1.4-7.9,2.6-11.6c6.4-18.9,24.5-29.8,44.3-27.1
	c13,1.8,24.1,7.5,33.5,16.5c3.4,3.2,6.3,6.9,9.3,10.3c2.1-2.6,4.2-5.5,6.6-8.2C510.5,6,525-0.3,542.8,3
	c14.4,2.6,24.5,10.5,28.7,24.9c0.6,2,0.8,4,1.3,6C572.8,36,572.8,38.1,572.8,40.2z M489.4,117c0.3-0.2,0.6-0.4,0.8-0.6
	c9.1-7.3,18.2-14.6,27.3-21.8c10.6-8.3,21-17,29.9-27.2c5.5-6.3,10.2-13,12.9-21c4.8-14.6-3.5-29-18.5-32.2c-9.1-2-17.4,0-25.3,4.6
	c-8.1,4.8-13.7,11.8-18.1,20c-0.8,1.5-1.6,3-2.6,4.3c-1.4,1.7-3.3,2.1-5.2,0.9c-1.3-0.8-2.6-1.9-3.6-3.2c-1.6-2-2.9-4.2-4.4-6.3
	c-9.2-13.6-21.5-21.9-38.2-22.8c-8.1-0.4-15.5,1.8-21.4,7.6c-9.5,9.2-11.1,20.7-8.2,33c1.7,7.3,6,13.3,11.3,18.6
	c7.1,7.2,15.6,12.7,24.2,17.9C464,97.3,478.1,105.1,489.4,117z M487,135.5c-2.8,3.6-4.4,7.3-4.6,11.5
	C485.3,143.8,487.4,140.4,487,135.5z"/>
<g id="Ebene_2">
	<g id="XMLID_5_">
		<path id="XMLID_375_" fill="#C2A1A2" d="M199.3,350.3c-0.6-1-1.3-2.2-1.2-3.3c0.1-7.7,0.4-15.3,0.7-23c0.1-3.1,2-5.2,4.8-6
			c2.7-0.7,5.6-1,8.4-1.3c2.3-0.2,4.7,0,7.6,0c-7.5-15.2-9.6-31-9.1-47.6c-1.9,0.3-3.3,0.5-4.7,0.8c-6,1.1-10-1.3-11.8-7.1
			c-2.1-7-4.1-14.1-6.4-21c-1.5-4.6-0.6-8.4,2.7-11.7c2.3-2.2,4.6-4.3,7-6.5c1.4-1.3,2.9-2.5,3-4.8c0-1,1-2.2,1.9-3
			c3.4-3.3,9.8-4.1,14.1-2c0.9,0.4,2,0.5,3,0.4c2.8-0.2,5.5-0.6,8.3-0.9c0.4,0.3,0.7-0.1,1-0.4c10.6-13.9,25-22.2,41.8-26.1
			c18.8-4.4,37.4-2.6,55.6,3.4c5.2,1.7,10.1,4,15.4,6.2c0.5-0.6,1-1.3,1.6-1.9c4.4-3.8,9.2-6.2,15.3-5.1c2.3,0.4,4.8,0.1,7.2,0.3
			c2.2,0.2,4.3,0.7,6.5,0.9c1.6,0.2,3.3,0.4,4.7,0c4.1-1,8.2-1.7,12.3-0.6c6,1.5,11.6,3.9,16.8,7.2c3.9,2.4,5.9,5.9,6.5,10.4
			c0.8,6.3,1.8,12.5,2.6,18.8c0.2,1.9,1.1,2.4,2.6,2c0.9-2.6,0.3-4.8-0.9-7c-3.6-6.8-4.2-14.2-3.1-21.7c0.6-4.2,2.9-6,7.1-6.4
			c3.1-0.3,6.1,0.5,8.9,2.2c3.3-2.9,6.8-3.6,10.9-1.8c4,1.7,6.4,4.7,8.3,8.7c10.5-2.3,15.2,4.7,19.2,11.9c2.9-0.2,5.4-0.4,7.9-0.4
			c6.6,0,10.3,2.7,11,9.2c0.6,5.7,1,11.5,2,17.2c0.5,2.8,0.9,5.5,2.4,8c0.6,1.1,1.1,2.4,1.1,3.7c0.1,4.8,0,9.6-0.2,14.4
			c-0.2,4-0.7,8-2.6,11.8c-0.5,1.1-0.1,2.6-0.1,3.8c4.9,0.5,4.9,0.5,8.3,3.6c0.9,0.8,1.8,1.6,2.6,2.5c4.8,4.7,7.9,10.1,7.8,17.1
			c-0.1,2.5,0.6,5,0.9,7.5c0.2,2.2,0.2,4.4,0.2,6.5c-0.1,2.4-0.7,4.8-0.5,7.2c0.2,3.9,1.1,7.8,1.3,11.7c0.3,6.9,0.2,13.8,0.2,20.7
			c0,2.9-0.6,5.9,1.2,8.6c0.4,0.7,0.4,1.7,0.5,2.6c0.1,7.9,0,15.8,0.2,23.6c0.1,6.3-3.4,9-8.5,8.6c-0.2,0-0.4,0.2-0.7,0.4
			c-0.2,2.6-0.3,5.3-0.5,8c-0.6,8.6-1.9,16.9-6.4,24.5c-0.6,0.9-0.7,2.3-0.6,3.4c0.4,6.2,1,12.4,1.5,18.6c1.5,18.8,3,37.5,4.3,56.3
			c0.9,12.9,1.1,25.8,1.9,38.7c0.4,6.9-1.8,12.4-6.6,17.1c-0.7,0.7-1.4,1.4-2,2.1c-2,2.5-4.6,3.3-7.8,3.3c-13.9,0.2-27.8,0.7-41.7,1
			c-0.7,0-1.5,0.2-2.2,0.3c-0.1,2.4,0.1,4.7-0.4,6.9c-0.7,3.1,0,5.6,1.8,8c1,1.3,1.9,2.7,3.1,3.8c3.4,2.9,5.6,6.6,6.3,10.9
			c1,5.7,1.4,11.5,2,17.2c0.1,0.8-0.1,1.7-0.2,2.4c-85.7,0-171.1,0-256.8,0c1.4-5.5,2.7-10.7,4.2-15.8c0.8-2.8,0.9-5.5,0.4-8.4
			c-0.9-5.1-1.5-10.2-2.2-15.3c-0.9-6,0.1-11.5,3.7-16.5c0.5-0.7,0.8-1.9,0.6-2.7c-2-6.6-1.6-13.2-0.5-19.9
			c1.1-6.4,1.6-12.8,1.2-19.3c-0.1-2.5,0.1-5.1-0.2-7.5c-0.8-7.2-1.8-14.3-2.8-21.4c-0.1-1-0.7-2-1.2-3.3c-4.1,1.7-8,2.9-11.5,4.8
			c-3.4,1.9-6.7,4.3-9.3,7.1c-3.1,3.3-6.5,5-11,4.9c-2.4,0-4.8-0.2-7.2-0.1c-0.9,0.1-2.1,0.6-2.7,1.3c-3.7,4-7.9,7.1-13.3,8.5
			c-8.1,2-16.1,4.2-24.1,6.3c-2,0.5-4.1,0.9-6.1,0.9c-3.8,0.1-7.3,0.8-10.8,2.3c-4.9,2.1-10.1,2.8-15.4,2.2c-2.4-0.3-4.7-1-7.1-1.2
			c-1.1-0.1-2.2,0.3-3.3,0.7c-2.7,1.1-5.2,2.8-8,3.6c-3.6,1-7.4,1.4-10.5-1.7c-3.5,3.2-6.9,6.3-10.4,9.4c4.5,5.7,3.3,11-3,13.6
			c-1.4,0.6-1.7,1.5-2.1,2.6c-1.4,3.2-3.8,5.5-7.2,5.3c-5.1-0.2-10.2-0.8-15.2-1.9c-2.4-0.5-4.6-1.8-7.3-1.7
			c-1.6,0.1-3.9-0.9-4.9-2.2c-2.9-3.5-5.6-7.2-7.7-11.2c-1.5-2.7-2-6-3-9c-1.2-3.8-0.9-7.4,1.3-10.7c3.5-5.3,7-10.7,13.7-12.6
			c0-1,0-1.8,0-2.7c0-6.3,2.8-11.2,8.2-14.4c2-1.2,4.2-1.8,6.3-2.8c2.9-1.3,5.8-2.6,8.5-4.1c0.9-0.5,1.7-1.5,1.9-2.4
			c0.8-3.6,3.1-5.7,6.4-6.8c1.8-0.6,2.8-1.8,3.5-3.5c3-6.7,8.5-11.3,13.9-15.8c1.2-1,2.9-1.5,4.4-2.1c1.6-0.7,3.3-1.2,4.9-1.8
			c6.4-2.1,12.3-5.1,17.7-9.2c2.3-1.7,4.7-3.4,7.3-4.4c9.7-3.5,19.4-6.7,29.2-9.7c1.6-0.5,4-0.5,5.4,0.3c3.2,1.9,5.9,0.9,8.6-0.5
			c2.7-1.5,5.5-2.8,7.8-4.7c4.6-3.8,9.8-5.6,15.6-6.1c4.1-0.3,6.7-2.6,7.7-6.6c2-7.7,4-15.4,5.8-23.2c1.3-5.8,3.8-10.8,7.5-15.5
			c2-2.5,4-5.3,5.1-8.3c2.4-6.3,5.7-11.8,11.5-16C201.6,354,200.4,352.2,199.3,350.3z M234.8,213.4c0.2-0.3,0.5-0.5,0.7-0.8
			c0.2-0.2,0.5-0.4,0.7-0.5c0.2-0.2,0.4-0.5,0.6-0.7c0.7-0.3,1.6-0.5,2.2-1c12.8-10.1,27.2-13.5,43.2-11.1
			c7.5,1.1,14.7,3.2,21.8,6.2c3.6-6.6,10.1-8.7,17.2-11.4c-2.8-0.7-4.9-1.4-7-1.8c-14.2-2.7-28.5-3.9-42.6-0.3
			c-13.2,3.3-25.3,9-34.6,19.5c-0.2,0.2-0.4,0.5-0.6,0.7s-0.5,0.4-0.7,0.5C235.3,213,235.1,213.3,234.8,213.4
			C234.8,213.5,234.8,213.5,234.8,213.4z M375.8,243c-0.5-0.2-1-0.3-1.6-0.5c-2.8-2.1-2.9-5.3-3.3-8.3c-0.9-6.3-1.9-12.5-2.8-18.8
			c-0.3-2.1-1.1-3.5-3.1-4.5c-6.9-3.6-8.4-3.2-11.6,3.9c-1.7,3.8-3.4,7.5-3.3,11.9c0.1,2.2,0.8,3.8,2.7,4.9c2.1,1.2,4.1,2.5,6.3,3.5
			c5.1,2.5,10.2,4.9,15.2,7.4C374.7,242.6,375.2,242.8,375.8,243C375.7,242.9,375.7,243,375.8,243z M366.6,297.5
			c-0.1-0.2-0.2-0.3-0.3-0.5c-0.2-0.8-0.5-1.6-0.8-2.8c-1.7,2.1-0.2,2.3,0.9,2.7C366.5,297.2,366.5,297.3,366.6,297.5z M340,316.5
			c0.2,0.1,0.4,0.2,0.6,0.3c0.3-0.3,0.6-0.6,0.8-1c1.2-2.4,2.5-4.8,3.7-7.2c0.4-0.8,0.9-1.5,1-2.3c0.4-2.2,0.6-4.5,0.9-6.7
			c0.1,0,0.1-0.1,0.2-0.1h-0.1C342.4,304.2,341.5,310.4,340,316.5z M16.7,537.9c1.7,0.4,3.2,0.4,4.6-1.4c-1.4-2.6-2.8-5.3-4.5-8.5
			c-2.3,2.8-4.4,5.4-6.5,8c-0.1,0.2,0,0.6,0.1,0.9c-0.1,0-0.1,0.1-0.2,0.1h0.1C12.5,537.3,14.7,537.5,16.7,537.9z M399.6,267
			c1.2,2.4,3.2,3.9,5.5,5.1c0.9,1.6,1.7,3.2,2.7,4.7c0.6,1,1.3,2,2.2,2.7c1.5,1.2,3.3,2.2,4.8,3.4c1.1,1,2.6,2.1,2.9,3.4
			c0.9,3.8,3.9,4.4,7.4,5.1c-0.6-1-1.1-2.1-1.9-3c-2.4-2.7-4.9-5.3-7.5-7.8c-3.3-3.1-6.9-5.9-10.4-8.9
			C403.4,270.2,402.2,267.8,399.6,267z M502.6,386.6c-0.5,0.9-0.3,2.1-0.4,3.2c-0.1,2.3-0.2,4.6-0.4,7.1c0.9,0.2,1.7,0.3,2.5,0.4
			c1.9,0.2,2.9-0.6,2.8-2.6c-0.1-5-0.2-10-0.3-15l0.1-0.1v0.1C505.5,382.1,503.9,384.3,502.6,386.6z M355.8,304.2
			c3.8-6.1,7.7-12.2,11.5-18.3c1.7-2.7,1.4-3.6-1.6-4.8c-1.3-0.5-2.7-0.6-4.3-0.9c-0.2,1.2-0.3,2-0.5,2.9c-0.6,4.3-1.8,8.3-4.1,12
			c-1,1.6-1.6,3.3-2.6,4.9c-2,3.2-4.1,6.4-6.2,9.6c-1,1.5-1.9,3.1-2.8,4.6c-0.2,0.1-0.3,0.2-0.5,0.3c0.1-0.1,0.3-0.2,0.4-0.3
			C349.6,311.6,353.2,308.4,355.8,304.2z M417.5,267.1c0.5-2.7,2.3-5.9-0.2-8.1c-2.9-2.6-6.4-4.5-10.7-4.6
			c-0.4,3.9-1.1,7.5-4.3,10.6c3.6,3.1,7,6.1,10.5,9.3c1.9-1.9,3.8-3.4,4.1-6v0.1C417.1,267.8,417.4,267.5,417.5,267.1z M224.1,357
			c-0.4,2.1-1.5,4.1-2.4,6.1c-0.8,1.7-1.7,3.3-2.8,4.8c-9.5,13-13.4,28.1-15.7,43.6c-0.8,5.8-0.1,11.9,0.1,17.9
			c0.7-5.4,1.4-10.8,2-16.2c0.9-8.5,3.1-16.5,6.7-24.2c3.4-7.4,6.9-14.6,12.3-20.8c2.4-2.8,3.7-6,4.2-9.8c0.4-2.7,1.8-5.3,2.9-7.9
			c0.5-1.2,1.2-2.3,1.9-3.4c0.1-0.2,0.2-0.4,0.4-0.6c-0.2,0.1-0.4,0.2-0.6,0.3C228.5,349,225,351.8,224.1,357z M8.6,545.9
			c0.2-0.1,0.5-0.1,0.7-0.2c-0.3-0.6-0.7-1.1-1-1.7c-0.3-1.5-0.6-3-1-4.4c-0.6-2-0.3-3.8,0.9-5.6c4.2-6.1,9.5-10.8,15.9-14.3
			c4.2-2.3,4.7-2.2,7.9,1.5c0.5,0.6,0.9,1.2,1.6,2.1c1.5-3.6,1.1-6.8,0.8-9.9c-0.1-1.3-0.1-2.2,1.8-1.9c1.2,7,0.4,13.5-3.4,19.7
			c-1.2,1.9-1.9,4.1-2.6,6.2c-0.5,1.6,0.1,2.8,1.6,3.5c2.8,1.2,5.6,2.4,8.6,3.2c0.9,0.2,2.3-0.5,3.1-1.2c4.6-3.9,9.1-7.9,13.5-12
			c1.4-1.3,2.9-2.4,4.9-2.1c1.9,0.3,3-0.5,3.9-2.1c0.6-1.1,1.5-2.1,2.5-3.4c-1.3-1.8-2.6-3.7-4.1-5.4c-6.7-7.2-13.5-14.3-19.9-21.2
			c-5.1,2.2-10.4,4.3-15.5,6.6c-5.5,2.4-7.6,5.9-7.3,11.9c0.2,5.3-0.1,5.7-5,7.2c-1.1,0.3-2.3,0.9-3.1,1.7c-2.1,2.2-4.1,4.6-5.9,7
			c-1.8,2.3-2.3,4.9-1.1,7.7c0.7,1.6,1.3,3.3,2,5C8.5,544.6,8.5,545.3,8.6,545.9z M436.6,574.2c-1.2-2.5-2.3-5.1-3.5-7.7
			c-3.3,1.3-6.2,2.5-9.1,3.6c-5.5,2-11.2,2.8-17,3.4c-12.3,1.1-24.6,2.5-36.9,3.8c-5.9,0.6-11.8,1.3-17.6,1.5
			c-16.6,0.8-33.2,1.6-49.9,1.9c-7.5,0.2-15.1-0.6-22.6-1.2c-9.9-0.8-19.9-1.6-29.7-3c-10.3-1.5-20.4-3.8-30.6-5.8
			c-0.6-0.1-1.3-0.3-1.9-0.5c-5-1.2-4.9-1.1-7.9,3.1c-3.4,4.8-3.5,10-2.2,15.8c3.8,0.8,7.7,1.6,11.6,2.4c7.6,1.6,15.2,3.2,22.8,4.8
			c9.7,2,19.6,2.1,29.4,2c16.2-0.2,32.4-0.5,48.6-0.3c18.8,0.3,37.4-0.9,55.9-3.7c9.3-1.4,18.6-3,28.1-1.7c4.1,0.5,8.3,0.8,12.4,1.5
			c4.4,0.7,8.7,0.5,13-0.8c2.9-0.9,5.9-1.7,8.5-2.4c0.2-3,0.4-5.8,0.7-8.6c0.4-3.1-0.4-5.8-2.2-8.3L436.6,574.2z M379.3,454.3
			c-4.9-1.4-8.9-4.6-12.6-8.1c-2.3-2.1-4.7-4.3-6.7-6.8c-2.9-3.5-6.3-6-10.4-7.8c-3.4-1.5-6.8-2.8-10.4-4.3
			c-0.3,1.6-0.5,2.9-0.8,4.5c-4.5-0.4-9-0.8-13.6-1.3c-0.1,0.8-0.3,1.5-0.3,2.2c-0.3,6.5-0.5,12.9-0.8,19.4c-0.2,5.4-1,6.4-6.3,7.9
			c-0.2,4.9-0.5,9.9-0.7,14.9c-0.7,17.6-1.4,35.2-2.2,52.8c-0.1,2-0.2,3.9-0.4,5.9c-0.7,5-4.4,8.2-9.5,8c-15-0.6-30-1.2-44.9-1.9
			c-5.6-0.2-11.1-0.5-16.7-0.8c-6.2-0.3-9.5-3.9-9.3-10.2c0.1-4.6,0.3-9.2,0.5-13.8c0.2-5.6,0.5-11.1,0.8-16.7c0-0.7,0-1.5,0-2.4
			c-2.2-0.4-4.2-0.6-6.2-1c-2.9-0.6-4.2-2.1-4.1-5c0.4-7.2,0.8-14.4,1.4-21.6c0.3-3.6,2.1-4.9,5.8-4.5c1.4,0.1,2.8,0.3,4.4,0.5
			c0-3.2,0-6.1,0-9.5c-3.9,0-7.9,0.2-11.7-0.1c-3-0.2-6.1-0.6-9-1.5c-3.3-1-5.9-3.2-7.7-6.2c-0.4-0.6-1.2-1.4-1.8-1.4
			c-1.4,0-1.2,1.3-1.2,2.2c0,5.8,0,11.6,0.2,17.4c0.3,7.8,0.8,15.5,1.3,23.3c0.1,1,0,2,0.4,2.9c4.6,11.5,5,23.6,5.4,35.8
			c0.2,7.5-0.4,14.8-1.5,22.2c-0.9,5.6-1.2,11.3,0.8,16.5c3.7,0.9,7.2,1.5,10.7,2.5c13.8,3.7,27.9,5.5,42.1,6.6
			c7.7,0.6,15.4,1.7,23.1,2.6c9.5,1.1,19,0.2,28.5-0.1c11.9-0.4,23.9-0.7,35.7-1.5c10.6-0.7,21.1-2.1,31.7-3.2
			c6-0.6,12-1.4,17.9-1.9c1.6-0.2,2.6-0.5,2.9-2.3c1.7-8.8,3.5-17.6,5.2-26.4c1.5-7.7,0.1-15.3-0.3-22.9c-0.2-3.5-0.4-7.4,0.8-10.7
			c4.2-11.6,5-23.7,5.4-35.9c0.1-2.9,0-5.9,0-9.2C402.4,462.4,391,457.7,379.3,454.3z M342.8,274.4c-0.1-5.2,2-7.6,7.9-9
			c-0.3-2.7-0.5-5.5-0.8-8.3c-0.2-1.9-1.4-2.5-3.2-2.4c-3.4,0.2-6.8,0.3-10.2,0.4c-3.4,0.1-4.2-0.6-5.1-3.8
			c-2.1-7.3-4.2-14.5-6.1-21.8c-0.5-1.7-1.3-2.8-2.8-3.8c-13.4-9.2-28.4-13.9-44.2-16.5c-6.5-1-12.6,0.3-18.5,2.9
			c-8.4,3.8-15.8,9-22.1,15.7c-5.9,6.4-9.1,14.3-11.9,22.4c-3.9,11.2-3.8,22.8-2.5,34.4c1.1,9.8,2.5,19.5,6.6,28.7
			c3.5,7.8,7.6,15.2,12.5,22.3c0.2,0.4,0.6,0.7,0.7,1.1c2.2,5.7,7.3,7,12.5,8.2c2.6,0.6,5.4,0.9,8.1,0.8c20.7-0.8,41-3.5,60.2-11.8
			c5.2-2.2,7.6-6.5,9.7-11.3c0.7-1.6,1.5-3.1,2.3-4.6c0.6-1.2,1.2-2.3,1.6-3.5c0.6-2.1,0.9-4.3,1.5-6.4c1.1-3.8,2.8-7.4,5.7-10.2
			c3.7-3.6,4.5-8.1,4.7-13.1C345.2,283.8,342.8,279.9,342.8,274.4z M339.6,420.9c2.2,1,4.4,2,6.6,2.9c6.8,2.9,12.9,6.8,18.9,11.1
			c15.4,11.3,32.5,18.8,51.7,20.9c0.5,0.1,1,0,1.6-0.4c-0.5-0.3-1.1-0.6-1.6-0.9c-4.7-2.4-8.9-5.5-12.8-9.1
			c-6.3-5.8-12.7-11.4-19.3-17.3c0.2-0.4,0.6-1.1,1.1-2c11.2,7.1,19,17.9,30.5,24.4c-1.1-1.1-2.2-2.2-3.2-3.4
			c-9-10.1-11.6-21.8-7.9-34.8c0.5-1.9,1.3-3.8,2.5-5.3c3.9-5.2,6.7-11,9.1-17.3c-3.2-3.8-3.6-8.5-3.2-13.4
			c0.3-4.8,0.3-9.6-0.4-14.4c-1-6.8,0.4-13.5,1.6-20.2c0.1-0.3,0.1-0.6,0.1-1.2c-0.9-0.5-1.8-1.1-2.7-1.6c-7,6.3-15,10.8-23.3,14.8
			c-7.3,3.5-14.7,4.1-22.1,0.5c-1.5-0.7-2.9-1.8-4.7-3c-4.6,5.6-9.2,11.3-12.7,17.9c-1.6,3-3.1,6-4.7,9c-2.6,4.8-5.7,9.3-9.4,13.4
			c-4.7,5.2-4.4,11.6-3.5,18c0.1,0.5,1.2,1.2,1.9,1.3c2.1,0.4,4.3,0.5,6.9,0.8C340.2,415.1,339.9,417.9,339.6,420.9z M68.4,500.2
			c4.3,4.9,7.5,10.7,11.4,16.3c1.5-0.5,3.1-1.2,4.8-1.7c1.4-0.4,2.8-0.7,4.2-0.7c1.5,0,2.4,0.9,2.5,2.4c0.1,2.2,0.3,4.4,0.2,6.6
			c0,2.6-1.2,3.5-3.8,3.1c-1.9-0.2-3.7-0.5-5.6-0.5c7.9,2.6,15.7,3.2,23.6-0.3c2.5-1.1,5.5-1.3,8.3-1.8c3.5-0.7,7.1-1.1,10.6-1.9
			c6.8-1.6,13.5-3.5,20.3-5.2c2.9-0.7,5.4-2,7.9-3.8c2.5-1.7,3.3-3.8,2.9-6.7c-0.9-6-0.9-12-0.3-18c0.4-4.1-0.5-8-2.8-11.6
			c-3.8-6-7-12.3-9.1-19.2c-0.9-2.8-2.4-5.4-3.8-8c-1.7-3.1-4.5-5.1-7.7-6.4c-1.2-0.5-2.9-0.4-4.1,0c-7.7,2.4-15.5,4.7-23,7.6
			c-3.6,1.4-7.1,3.4-10.3,5.6c-5.8,4.2-12.1,7.4-18.9,9.7c-1.9,0.6-3.7,1.2-5.5,2c-1.4,0.6-3,1.2-4,2.3c-4.7,5-10.4,9.2-12,16.8
			C58.9,491.3,64.2,495.3,68.4,500.2z M474.7,335.6c-8.7,1.1-17-0.7-25.2-2.9c-7.7-2.1-15.3-4.6-22.9-7c-5.4-1.7-10-4.8-13.8-9.1
			c-0.3-0.4-0.7-0.7-1.3-1.4c-0.5,4.2,0.4,7.6,2.1,10.7c1.1,1.9,2.3,3.8,3.6,5.5c2.2,2.8,2.8,5.8,2.2,9.2c-0.8,4.6-1.6,9.3-2,13.9
			c-0.3,2.8,0.1,5.7,0.2,8.5c0.1,4.1,0.3,8.3,0.4,12.4c0.1,2.5-0.1,5,0.3,7.5c0.2,1.4,0.9,3.1,1.9,4.1c8.5,8.3,17.5,15.9,29.3,19.1
			c11.7,3.2,22.7,0.5,33.3-4.7c2.5-1.2,4-3.3,3.9-6c-0.1-3.5-0.4-7-1.1-10.4c-1.5-7.4-3.7-14.7-2.9-22.3c0.3-2.7,0.5-5.4,0.7-8.2
			c0.4-6.7-0.8-13-3.4-19.5C478,335.3,476.3,335.4,474.7,335.6z M410.4,597.8c-0.5-1.6-1.7-1.8-3-2c-7.8-1.2-15.5-0.8-23.2,0.2
			c-9.8,1.3-19.5,2.9-29.3,3.6c-10.7,0.8-21.4,1-32.1,1.2c-16.8,0.2-33.7-0.2-50.5,0.3c-16.1,0.5-31.8-1.9-47.4-5.5
			c-5.4-1.3-10.9-2.3-16.8-3.5c0.3,2.1,0.3,4.1,0.8,5.9c1.6,6,1.2,11.8-1,17.6c-0.6,1.7-0.9,3.6-1.5,5.6c68.8,0,137.4,0,206.4,0
			C413.4,613.2,413,605.4,410.4,597.8z M411,410c-5.4,8.9-4.1,22.6,2.8,31.5c5,6.5,11.2,11.6,18.4,15.5c2.8,1.5,5.9,2.3,9.1,2.2
			c10.2-0.2,20.2-2.2,30-4.8c1.7-0.4,3.4-1.6,4.7-2.9c9.4-9.5,17.8-19.7,19.8-33.5c0.9-6.1,1-12.4,1.4-18.6c0.2-2.4,0.2-4.8-0.2-7.5
			c-0.7,0.8-1.4,1.4-1.9,2.3c-6.6,11.2-17.3,15.1-29.2,17c-11.4,1.7-22-0.7-31.5-7.2c-4.9-3.3-9.6-6.8-14.8-10.6
			C418.1,399.8,414.3,404.7,411,410z M471.5,570.5c5.9-0.3,11.5-0.5,17.2-0.8c0.3,0,0.7-0.1,0.9-0.3c4-4.3,9.1-7.8,8.7-14.7
			c-0.8-15.2-1.3-30.4-2.2-45.5c-0.8-13-2-25.9-3-38.9c-0.7-9.3-1.4-18.5-2.1-27.8c0-0.2-0.2-0.3-0.5-0.7
			c-6.7,9.1-13.1,18.4-26.2,18.6C466.7,497.5,469.1,533.8,471.5,570.5z M452.2,244.9c-0.4-0.1-1.1-0.2-1.2-0.5
			c-1.7-4.3-5.7-2.6-8.8-3.3c-1.4-0.3-2.9,0-4.2-0.2c-1.5-0.2-3.3,0.2-4.1-1.9c-0.1-0.4-1.4-0.4-2.1-0.4c-1.8-0.1-3.7,0-5.6,0
			c-3.2,4.8-2.1,9.6,0.8,14.6c-1.1,0.8-2,1.6-3.1,2.3c-1.9,1.3-2.9,2.6-2.7,5.3c0.5,5.7-0.8,11.1-5.9,15.2c2.3,2.6,4.6,5.1,6.8,7.5
			c0.9-0.7,1.7-1.5,2.7-1.8c8.7-3.1,17.7-3.8,27-3.7c0.9,3.2,1.7,6.4,2.7,10c10.5-2.5,21.8-3,28.5-14.4c-16.8,1.6-32.8-0.6-48.8-4.6
			c0.3-1,0.5-1.6,0.8-2.7c16,3.8,32.1,6.2,48.9,4.3c0.2-3.2,0.5-7,0.8-10.8c0.1-0.7,0.4-1.4,0.7-2.1c0.6-1.4,1.4-2.7,1.9-4.2
			c0.2-0.7,0.1-2.1-0.3-2.3c-0.7-0.4-1.9-0.4-2.6-0.1c-3.3,1.7-6.8,2.6-10.4,1.9c-2.3-0.5-4.5-1.4-7.1-2.3c0.6-1.1,1-1.8,1.4-2.7
			c5.5,2.4,10.8,2.9,16.3-0.3c-0.2-1.6-0.3-3.1-0.5-5c-5.8,2.9-11.3,2.9-16.9-0.2c0.5-1.6,0.9-2.4,2.9-1.8c4.8,1.5,9.5,1.3,14.1-1.5
			c-0.4-1.2-0.7-2.3-1.1-3.5c-5.6,1.1-11,1.6-16-2.2c0.5-0.7,0.9-1.4,1.1-1.7c2.8,0.6,5.3,1.3,7.9,1.6c2,0.2,4.1-0.2,6.2-0.3
			c0.7-3.7,0.6-6.9-0.3-10.1c-0.7-2.7-1.8-3.5-4.6-3.8c-6.7-0.7-8.6,0.7-10.2,7.2c-0.1,0.6-0.3,1.2-0.5,2.4
			c-1.3-2.1-2.3-3.7-3.3-5.4c-2.2,0.2-4.4,0.6-6.5,0.7c-2,0.1-4.1,0-6.7,0c1,2.1,2,4.3,3.1,6.3c0.4,0.6,1.5,0.9,2.3,1
			c3.2,0.1,6.5,0,9.8,0c0.5,2.3,0.3,2.7-2.1,3.1c-3.7,0.5-7.4,0.6-11-1c-1.6,3.3,1.8,5.6,1.1,9c3.5,0.5,6.7,1,9.9,1.2
			c1.8,0.1,2.7,0.6,2.2,2.7C460.7,247,456.4,246.1,452.2,244.9z M307.5,466.3c-3.1,0.8-6.4,1-9.8,1.4c0.7,0.6,1.5,1.3,2.3,2.1
			c1,0.9,2,1.7,2.8,2.7c1.9,2.2,1.9,3.6,0.3,6.2c1.4,0.2,2.8,0.4,4.1,0.7c4.6,1.1,6.5,6.9,3.2,10.4c-0.7,0.7-1.9,0.8-3.1,1.3
			c0,1.4,0,2.9,0,4.8c-1.3,0-2.5,0-3.7,0c-12.5-0.4-24.9-0.8-37.4-1.2c-2.5-0.1-5.1-0.4-7.5-0.1c-2.4,0.4-4.7,1.5-7.3,2.4
			c-1-0.9-2-1.8-2.9-2.6c-1.7,0.7-3.3,1.7-5,1.9c-1.8,0.2-3.7-0.2-5.8-0.4c-0.1,2.6-0.3,5-0.4,7.4c-0.4,8.3-0.8,16.6-1,24.9
			c-0.2,5.6,2,7.7,7.6,7.9c19.8,0.8,39.6,1.7,59.3,2.5c5.7,0.2,7.8-1.7,8.1-7.4c1-23.2,2-46.3,3.1-69.5c0-0.7,0-1.5,0-2.2
			c-0.3-0.1-0.6-0.3-0.9-0.4C311.2,461.3,310.9,465.4,307.5,466.3z M431.7,563.5c0.4-0.2,0.6-0.7,1-0.8c3.3-0.1,3.8-2.5,3.9-5
			c0.2-2.7,0.3-5.5,0.1-8.2c-0.4-6.4,1.3-12.4,4.2-18c1.8-3.5,3.7-6.9,5.9-10.2c4.2-6.3,5.2-12.9,2.9-20
			c-3.8-11.7-4.6-23.8-4.7-35.9c0-0.5-0.1-1-0.1-1.9c-6.9,0.9-13.5-2.6-20.4,0.2c-1.1,3-2.1,6.2-2.2,9.8c-0.1,7.5-0.3,15.1-0.9,22.6
			c-0.3,3.4-1.3,6.9-2.3,10.2c-2.3,7.7-2.7,15.4-0.8,23.3c2.4,9.7,1.2,19.1-3.3,28c-2,4-2.7,7.8-2.4,12.2
			C419.6,568.9,425.8,566.7,431.7,563.5z M170.3,507.2c2.8,0,5-0.9,6.9-3.1c2.1-2.2,4.5-4.1,6.9-5.9c1.5-1.1,2-2.3,2.3-4
			c1.3-8.7,0.5-17.3-1.1-25.8c-1.2-6.5-2.7-13-4.5-19.5c-1.9-6.8-6-12.5-9.4-18.6c-7.3,0.5-14,1.5-19.7,6.5
			c-3.1,2.7-7.3,4.3-11.1,6.4c3.9,4.7,6,10.5,8.3,16.3c1.7,4.4,3.9,8.8,6.4,12.9c3.3,5.3,4.6,10.9,4.3,17.1c-0.3,5.7,0,11.5,0,17.6
			C163.8,507.2,167,507.2,170.3,507.2z M456,313.3c-8.2-1.9-16.6-3.2-24.6-5.8c-5.9-1.9-12.2-4.4-13.4-12c0-0.2-0.3-0.3-0.2-0.3
			c-2.1,2.2-4.2,4.4-6.4,6.5c-1,0.9-0.9,1.8-0.6,2.9c2.5,7.5,7.2,13.2,14.6,15.9c13.2,5,26.6,10,40.7,10.8c12.3,0.7,24.5-0.6,34.7-9
			c2.2-1.8,3.3-3.6,3-6.4c-0.5-4.8-0.8-9.6-1.6-14.3c-0.3-2-1.4-4-2.6-5.6c-1.7-2.3-3.9-4.1-5.8-6.2c-1.4-1.5-3.1-1.9-5-1.3
			c-0.1,0.3-0.2,0.5-0.2,0.6c0.7,4.2,0.6,4.2-2.9,6.5c-7.6,5-16.1,7.2-25,8.3c-0.6,0.1-1.3,0.2-2.1,0.3c0.8,3.3,1.5,6.4,2.4,9.9
			C459.1,313.9,457.6,313.6,456,313.3z M445.7,571.7c6.7-0.7,13.5-0.7,20.3-0.9c1.1,0,2.1-0.2,3.4-0.2c-2.4-36.5-4.8-72.7-7.2-109.2
			c-4.7,0.7-9.2,1.4-14,2.1c0.9,8.1,1.6,16,2.7,23.9c0.8,5.7,2.1,11.4,3.2,17.1c1.2,6.4,0.4,12.4-3.1,18c-2,3.2-3.8,6.6-5.7,10
			c-2.9,5.3-4.5,10.8-4.2,17c0.3,6-1.3,11.5-5,16C437.1,571.4,440.7,572.2,445.7,571.7z M197.2,372.2c-1.6,4.4-3.9,8.3-6.9,11.8
			c-3.1,3.7-5.1,7.8-6.2,12.5c-2,8.8-4.3,17.6-6.6,26.4c-0.3,1.2-0.6,2.3,0.5,3.3c7.2,6.6,10.4,15.3,12.8,24.4
			c2.1,8.2,3.2,16.7,4.8,25.1c1,5.4,1.5,10.8,0.3,16.7c2.8-0.9,5.1-1.6,7.5-2.4c-0.2-4.3-0.6-8.6-0.7-12.8
			c-0.3-9.7-0.5-19.5-0.8-29.2c-0.3-6.7-0.6-13.3-1.2-19.9c-0.9-10.4,0.2-20.6,3.1-30.5c2.1-7.2,3.8-14.6,7.4-21.3
			c3.5-6.6,6.6-13.5,10-20.5C209.9,356.8,201.2,361.1,197.2,372.2z M247.4,453.9c-0.1,3.7,0.2,4,3.7,5.5c0.9,0.4,1.7,1.2,2.5,2
			c3.5,3.5,6.8,7.2,10.3,10.5c5.8,5.4,10.3,6.1,17.2,2c5.3-3.2,10.3-6.9,15.5-10.3c1.4-0.9,3-1.7,4.6-2.3c1.7-0.7,2.8-1.7,2.9-3.6
			c0.2-2,0.3-3.9,0.4-5.9c0.7-15.1,1.3-30.1,1.9-45.2c0.2-4.2-1.1-5.7-5.4-5.9c-9.8-0.5-19.7-0.8-29.5-1.3
			c-5.5-0.2-10.9-0.5-16.4-0.7c-4.2-0.1-5.4,1.1-5.6,5.3c-0.4,8.4-0.7,16.8-1.1,25.2l0,0C248,437.5,247.7,445.7,247.4,453.9z
			 M304.5,488.5c1.3-0.4,2.5-0.7,3.7-1c1.2-4.3,0.8-5.1-3.4-5.4c-5.8-0.4-11.6-0.4-17.4-0.6c-5.5-0.2-10.9-0.1-16.4-0.6
			c-3.3-0.3-6.5-1.1-9.7-2c-2.9-0.8-3.2-2.5-1.4-6.3c-0.1-0.2-0.2-0.4-0.3-0.6c-3-4.3-7.1-5.6-12.4-5.1c-5.1,0.5-10.2-0.2-15.4-0.4
			c-0.8,0-1.5,0-2.6,0c-0.3,1.3-0.7,2.6-0.8,3.8c-0.4,6.3-0.8,12.7-1.2,19c-0.1,1.6,0.6,2.6,2.1,2.7c4.6,0.5,9.1,1,13.7,1.4
			c0.8,0.1,1.6-0.4,2.3-0.9c1-0.7,1.8-1.5,2.8-2.3c1.3,1.2,2.5,2.3,3.6,3.4c0.3,0,0.6,0.1,0.7,0c3.9-2.2,8.1-2,12.4-1.8
			c12.4,0.5,24.7,0.8,37.1,1.2c0.6,0,1.3-0.1,2.2-0.2C304.4,491.1,304.5,489.9,304.5,488.5z M316,360.5c-1,6.5-0.4,12.8,1.3,19.1
			c1.5,5.4,2.5,10.9,3.9,16.3c0.8,3.2,0.1,5.8-1.9,8.2c-1,1.2-1.9,2.6-3.2,4.4c2,0.1,3.6,0.2,5.4,0.3c0.4-4.7,1-9.2,1.2-13.8
			c0.1-4,1.7-7.4,3.9-10.6c1.8-2.6,3.9-5,5.8-7.6c4.5-5.9,8.9-11.9,13.5-17.8c3.6-4.6,7.5-9.1,11.4-13.8c-3.1-3.9-6.4-8-9.9-12.4
			c-11.7,7.4-24,13.5-37.7,17.3C315.5,352.6,317,354.8,316,360.5z M242.8,439.8c-3.1-4.7-5.8-9.8-8.6-14.7c-0.7-1.3-1.2-3-1.1-4.6
			c0-3.8,0.4-7.6,0.6-11.5c0-0.8,0-1.7,0-2.7c-5.1,0-10-0.2-14.9,0.1c-3.8,0.2-5.7,3-6.4,6.5c-0.7,4-1.3,8-1.6,12
			c-0.5,5.8-0.7,11.6-1,17.4c-0.2,3,1.2,5.2,3.6,6.5c2.2,1.2,4.6,2.4,7,2.5c7.6,0.4,15.3,0.3,23,0.4c0.3,0,0.6-0.2,1.1-0.4
			C244.9,447.4,245.3,443.6,242.8,439.8z M373.1,300.2c0.6,4.8,1.3,9.5,1.7,14.1c0.1,1.6,0.9,2.2,2.2,2.8c6.2,2.5,12.3,5.1,18.5,7.6
			c1.8,0.7,3.8,1.1,5.9,1.7c1.7-1.8,3.5-3.6,5-5.5c0.5-0.6,0.5-1.6,0.6-2.4c0.3-2.5,0.6-5,0.7-7.5c0.1-0.9-0.1-1.9-0.2-2.8
			c-0.1-0.7-0.5-1.4-0.8-2.2c-1.2-3.9-0.6-5.9,2.7-8.2c2.8-2,4.3-4.6,4.3-8c0-3.2-4.1-6.1-7.1-4.9c-4,1.6-8.1,2.3-12.4,3
			c-3.3,0.5-6.4,1.6-9.9,1.4c-2.5-0.2-4.8-0.4-6.4-3.8C376.4,291.1,378.3,296.9,373.1,300.2z M482.3,334.7c0.6,2,1.1,3.7,1.6,5.5
			c1.7,6.1,2,12.3,1.2,18.5c-1,7.7-0.1,15.2,1.8,22.7c1.1,4.3,1.8,8.7,2.6,13c3.4-3.8,7.1-7.6,10.5-11.7c2.7-3.3,4.1-7.3,4.2-11.5
			c0.3-9.4,0.8-18.8,0.6-28.2c-0.1-5.4-1.2-10.8-2-17C496.7,331.2,490,333.8,482.3,334.7z M300.4,390.2c-2.7-2-3.8-4.6-3.8-7.9
			c0-4.9,1.2-8.9,6.5-10.4c0.6-0.2,1.1-0.6,1.5-1.3c-3.2,0-6.5,0-9.7,0c-7.7,0-15.3-0.1-23,0.1c-1.6,0-3.4,0.6-4.9,1.3
			c-1.9,0.8-3.6,2.1-5.4,3.1c-4.6,2.7-5.1,9.2-1.1,12.7c0.5,0.4,1.1,0.8,1.5,1.3c3,4.2,7.2,5.2,12.2,5.3c9.7,0.2,19.4,1.1,29.1,1.6
			c0.9,0.1,1.7,0,3.4,0C304.2,393.7,302.5,391.8,300.4,390.2z M220,352.8c0.5-0.1,1.1-0.3,1.5-0.6c4.8-3.6,9.6-7.2,14.1-10.5
			c-3.9-6.5-7.8-12.9-11.8-19.7c-4.8,0-9.8-0.2-14.8,0.1c-4.7,0.3-5.4,1.1-5.5,5.9c-0.2,5.6-0.3,11.2-0.3,16.7c0,1.3,0.4,2.8,1.1,4
			c1.3,2.4,2.9,4.6,4.3,6.6C212.6,354.4,216.3,353.6,220,352.8z M370.2,215c1.2,7.3,2.3,14.7,3.3,22c0.2,1.4,0.8,2.4,1.9,3.2
			c2.3,1.6,4.6,3.3,6.8,5.1c1.5,1.2,3.1,1.8,5,2c4.3,0.4,6.6-1.8,6-6.2c-0.6-5.3-1.5-10.6-2.2-15.9c-0.4-2.5-0.7-5-1.1-7.5
			c-0.8-6.3-4.2-10.7-9.9-13.3c-3.2-1.5-6.6-2.8-10-4.1c-0.9-0.3-1.8-0.4-2.7-0.6C368.5,205.2,369.4,210.1,370.2,215z M425.2,621.3
			c8.7,0,17.4,0,26.6,0c-0.9-8.2-0.5-16.5-7.6-22.6c-1.6-1.4-2.8-3.4-4.2-5.2c-5.8,1.4-11.7,2.9-17.8,4.4
			C425.5,605.4,423.5,613.5,425.2,621.3z M229.8,364.1c5,0.2,10,0.4,15,0.7c6.1,0.3,12.2,0.5,18.4,0.8c1.1,0.1,2.4,0,3.2,0.6
			c3.9,2.9,8.2,1,12.7,1.6c0-3.2,0-6,0-8.7c4.6,0,8.7,0,13,0c0,2.9,0,5.5,0,8.5c1.3,0.1,2.4,0.1,3.8,0.2c1.2-4.9-0.4-10,2.2-14.8
			c-4.8,0.7-9.5,1.4-14.2,2c-10.5,1.3-20.9,1.8-31.4,0.7c-1.7-0.2-3.5,0-5.2,0.3c-4.6,0.9-8.7-1.8-9.6-6.5c-0.2-1-0.4-1.9-0.7-2.9
			C232.8,350.3,230.7,355.6,229.8,364.1z M234.9,402.3c2-3.8,5.2-4.8,9.1-3.9c2.1,0.5,3.8,0.3,5.7-1.2c1.4-1.1,3.8-1.3,5.8-1.4
			c2.9-0.1,5.8,0.2,9.5,0.4c-2.2-2.2-3.7-4.2-5.6-5.5c-5-3.3-4.7-8-3.8-12.9c0.1-0.8,0.5-1.7,1-3c-7.7,0-15.2,0-23.2,0
			c0,9.2,0,18.7,0,28.2c0.3,0.2,0.6,0.4,0.9,0.7C234.5,403.3,234.7,402.8,234.9,402.3z M320.4,217c-14.5-9.6-30.2-16-47.8-16.1
			c-15.3-0.1-28.1,5.8-38.4,17c-0.9,1-1.7,2-2.4,3.1c-2.2,3.3-1.8,5.1,1.6,7.9c1-1.2,1.9-2.3,2.9-3.5c9.5-11.4,21.5-18.1,36.4-19.3
			c7.5-0.6,14.8,1.1,21.9,3.4c9.2,3,17.8,7.4,26,12.4c0.7,0.4,1.4,0.8,2.4,1.4C323,220.6,322.7,218.5,320.4,217z M455.4,310.1
			c0.4,0.1,0.8,0.1,1.6,0.1c-0.5-2.1-1-3.9-1.5-5.8c-1.5-0.1-2.8-0.1-4.5-0.2c-1.4-4.9-2.9-9.9-4.4-15.1c1.6-0.3,3-0.6,4.7-1
			c-0.6-2.4-1.1-4.7-1.7-7.2c-8,0-15.8,0.7-23.5,3.4c0.5,2.1,0.9,4.1,1.3,6.1c0,0.2,0,0.6,0.2,0.6c4,2.2,2.6,6.2,3.3,9.5
			c0.3,1.3,0.4,2.6,0.6,4.2C439.7,306.6,447.6,308.4,455.4,310.1z M381.1,202.5c6.1,3,10,7.6,11,14.5c1.2,8.2,2.4,16.4,3.6,24.7
			c0.2,1.2-0.3,2.5-0.5,4c4.6-0.8,9.3-1.7,13.7-3.7c2.2-1,2.7-3,2.4-5.2c-0.8-6.7-1.6-13.5-2.5-20.2c-0.4-3.1-1.1-6.2-1.5-9.4
			c-0.3-2.1-1.4-3.7-3-4.8c-4.9-3.4-10.4-5.8-16.1-7c-2.7-0.6-5.6-0.2-8.4,0.2c-2.9,0.4-5.7,1.4-8.9,2.3
			C374.5,199.6,377.8,200.9,381.1,202.5z M72.4,531.6c6.9-2.4,8.4-5.8,5.8-12.6c-0.1-0.3-0.2-0.6-0.4-0.9c-5-7.9-9.4-16.3-16.9-22.4
			c-3.4-2.7-6.7-5.6-10.2-8.6c-0.8,0.3-1.7,0.6-2.6,1c-3.4,1.6-4.2,4.5-1.8,7.3c5.1,5.8,10.2,11.7,15.7,17.2
			c4.1,4.1,7.3,8.9,10.3,13.8c0.3,0.6,0.1,1.7-0.2,2.4c-0.5,1.1-1.3,2-2.3,3.5C71.2,532,71.8,531.9,72.4,531.6z M208.8,418.3
			c0.3-2.4,0.5-4.8,1.2-7.1c1.6-5.2,4.7-7.5,10-7.8c3.1-0.2,6.3-0.3,9.7-0.5c0.1-3.5,0.3-7.1,0.3-10.7c0.1-3.5,0-7,0-10.7
			c-4.3-0.3-7.6-2-7.7-7.4c-0.7,1-1.6,2-2.2,3.1c-4.8,9-9.6,18-11.5,28c-1.2,6.2-1.8,12.5-2.6,18.8c-0.3,2.3-0.4,4.6-0.8,6.8
			c-0.5,3,0.2,5.8,1.3,9.2C207.3,432.3,208,425.3,208.8,418.3z M417.6,463.5c-0.1,1.4-0.2,2.7-0.2,3.9c-0.5,8.4-0.8,16.8-1.7,25.2
			c-0.5,4.4-1.7,8.8-3.1,13c-1.4,4.5-2.2,8.8-1.7,13.5c0.9,8.4,1.9,16.7,0.1,25.1c-1.2,5.7-2.3,11.3-3.5,17
			c-0.6,2.9-1.1,5.8-1.7,8.9c1.5,0,2.8,0,4.3,0c0.3-2.2,0.4-4.3,0.8-6.3c0.5-2.1,0.9-4.3,1.9-6.2c4.9-9.5,5.8-19.4,3.3-29.6
			c-1.6-6.6-1.6-13,0.4-19.4c3.3-10.8,4.2-21.8,3.9-33.1c-0.1-4,0.8-7.9,1.2-12.1C420.5,463.5,419.2,463.5,417.6,463.5z
			 M322.3,215.3c6.7-3.4,13.6-6.8,21.1-10.6c-1-0.9-1.5-1.8-2.3-2.1c-4.7-2.3-9.5-4.5-14.3-6.6c-0.8-0.4-2-0.4-2.9-0.2
			c-5.1,1.1-9.9,2.9-14.1,6c-1.4,1.1-2.6,2.6-4,4.1C311.7,209.3,316.9,212.3,322.3,215.3z M453.3,301.5c2.5-0.2,4.9-0.3,7.4-0.5
			c8.2-0.9,16-3,23.1-7.5c1.7-1.1,2.4-2.2,2-4.2c-0.7-3.7-1.3-7.4-2-11.8c-6.1,8.4-14.9,10.2-23.7,12.1c-3.1,0.7-6.2,1.1-9.7,1.8
			C451.4,294.9,452.3,298,453.3,301.5z M313,456.9c0.6,0.2,0.9,0.4,1.2,0.4c6.8,0.4,6.9,0.4,7.3-6.5c0.4-8.6,0.7-17.2,1-25.8
			c0.1-3.4,0.4-6.8,0.5-10.1c0.1-2.9-0.9-3.9-3.9-4c-1.5-0.1-3,0-4.8,0C313.8,426.2,313.4,441.6,313,456.9z M358.9,347.1
			c-3.4,3.9-7,7.3-9.8,11.3c-5.5,8-11.3,15.8-17.7,23.2c-0.4,0.4-0.7,0.8-1,1.3c-3.2,4.1-5.7,8.5-5.7,14c0,4.3-0.7,8.7-1,13.3
			c2,0.2,3.8,0.4,5.9,0.5c-0.9-5.1-0.7-9.7,0.7-14.3c0.6-1.9,1.5-4,2.9-5.4c4.4-4.6,7.8-9.7,10.6-15.3c4.6-9.4,10.2-18.1,17.2-26.1
			C360.2,348.7,359.7,348.2,358.9,347.1z M191.5,493.9c1.7-0.5,2.3-1.6,2.6-3.3c1.1-6-0.3-11.7-1-17.6c-1.5-11.4-3.6-22.6-8.3-33.3
			c-2.2-5.1-5.5-9.4-9.7-13.4c-0.7,0.9-1.3,1.8-2,2.7c6.6,9.7,11,20.1,13.2,31.6c2.1,11.2,4,22.4,2.3,34.4
			C189.9,494.5,190.7,494.1,191.5,493.9z M413,333.5c-1.8-3.1-3.6-6.2-5.4-9.3c-10.5,9.9-20,20.9-31.8,29.8
			C385.3,354.5,407,342.5,413,333.5z M382.3,327.9c1.2-0.5,2.4-0.8,4.1-1.4c-6-3.4-12.6-4.2-16.9-8.6c0.4-2.8,0.7-5.3,1-7.7
			c-0.3-0.1-0.6-0.2-0.9-0.2c-1.3,3.8-1.4,8.2-4.9,11c-3.3,2.5-6.7,4.9-10.2,7.5c1.4,2,2.8,4,4.1,5.9c1.4,1.9,2.8,3.9,4.5,6.2
			C367.7,332.9,375.4,330.9,382.3,327.9z M423.3,458.7c-8.3-0.6-16.6-1.4-24.5-4.1c-13.4-4.6-26.2-10.5-37.3-19.4
			c-6.1-4.9-13.2-8-20.4-11c-0.9,1.7,0.3,2,1.3,2.4c2.6,1.1,5.3,2.1,7.9,3.3c4.4,1.9,8.1,4.6,11.2,8.3c2.8,3.3,6.1,6.2,9.4,9.1
			c3.4,2.9,7.4,5,11.8,6.2c8.3,2.2,16.6,4.8,24.9,7c6.9,1.8,13.8,1.3,20.8,0.5c0-0.4,0-0.7,0.1-1.1
			C426.8,459.3,425.1,458.8,423.3,458.7z M392,270.1c1.2,0.5,2.5,0.8,3.7,1.3c0.1-0.2,0.2-0.5,0.4-0.7c-1.6-2.1-3.2-4.3-4.8-6.4
			c-0.7-1-1.5-1.8-2.2-2.8c-3.5-4.9-3.2-7.5,1.1-11.6c-6.3-1-6.3-1-10.8-4c-0.6,0.5-1.3,1-2,1.5c-1.2-0.5-2.3-1-3.9-1.8
			c1.3,8.5,2.7,16.6,4.8,24.7C383.3,267.9,387.6,268.3,392,270.1z M207,233.4c-5,0.9-9.7,1.8-14.8,2.7c0.1,1.3-0.1,2.6,0.2,3.7
			c2.1,7.1,4.3,14.2,6.5,21.3c1.2,3.8,2.5,4.6,6.5,3.9c3.5-0.6,7-1.2,10.9-1.9C213.1,253,210.1,243.3,207,233.4z M215.8,266.3
			c0,5.2-0.1,10.3,0,15.4c0.5,16.5,6.5,31.3,14.5,45.5c2.4,4.2,5.2,8.1,7.8,12.1c0.9,1.5,2,1.6,3.5-0.2
			c-16.8-21.4-22.9-46.3-21.6-73.7C218.2,265.8,217.1,266,215.8,266.3z M246.2,354c2.8-0.3,5.6-0.4,8.4-0.3
			c32.2,1.5,62.7-4.2,90.3-21.9c0.3-0.2,0.6-0.5,1-0.8c-1.1-1.7-2-0.4-2.8,0c-6.8,3.3-13.5,6.7-20.3,9.9c-9.5,4.3-19.7,6.4-30.1,7.8
			c-9,1.2-18,1.9-27.1,2.5c-4,0.2-8-0.5-12.1-0.9c-4.5-0.4-9.1-0.9-13.7-1.3C240.6,352.5,243.3,354.3,246.2,354z M246.6,401.7
			c-1.6-0.3-2.9-0.5-4.3-0.7c-2.9-0.3-5.2,1.5-5.4,4.4c-0.5,5.2-0.7,10.4-1,15.7c0,0.6,0.1,1.3,0.5,1.9c2.7,4.8,5.5,9.6,8.3,14.4
			c0.2-0.1,0.4-0.1,0.6-0.2C245.7,425.4,246.1,413.7,246.6,401.7z M335.4,218.2c3.2,1.3,4.9,3,5.5,5.6c0.1,0.4,0.2,0.8,0.3,1.3
			c0.4,3.4-1.5,6.6-4.3,7.2c-2.7,0.6-5.8-1.7-6.6-5.2c-0.8-3.6,0-6.6,4.2-9c-3.5,0.4-6.2,0.7-9.2,1c1,3.5,1.9,6.8,2.8,10
			c1.9,6.8,3.9,13.7,5.7,20.5c0.5,1.9,1.3,2.8,3.4,2.6c2.8-0.3,5.7-0.2,8.5-0.4s3.2-0.7,2.8-3.5c-0.4-2.7-1.2-5.3-1.8-8
			c-1.6-6.7-3.1-13.4-4.7-20.1c-0.2-0.8-0.5-1.6-0.8-2.6C339.5,217.8,337.9,217.9,335.4,218.2z M389.8,273.7
			c-1.5-0.1-2.9-0.2-4.3-0.3c-4.6-0.1-9.1-0.4-13.4-2.4c-0.6-0.3-1.6-0.6-2.2-0.3c-3.2,1.4-6.2,3.1-8,5.8c3.2,1.5,6.3,3,9.4,4.5
			c1.3,0.6,2.6,1.2,3.9,1.5c5,1.2,10,1.9,15.4,2.2C390.4,280.9,390.1,277.5,389.8,273.7z M423.1,252.2c-1.4-3.5-2.1-7-1.4-11
			c0.7-3.5-3-6.8-7.8-7.6c0,0.7,0,1.4,0.1,2.1c0.6,5-1,7.9-5.8,9.6c-4,1.4-8.2,2.3-13,3.6c4.6,0.9,8.6,1.6,12.6,2.6
			c2.6,0.7,5.1,1.7,7.6,2.7c1.2,0.5,2.3,1.2,3.3,1.8C420.3,254.8,421.6,253.6,423.1,252.2z M381.9,345.5c5-4.8,9.9-9.6,14.8-14.3
			c0.3-0.3,0.5-0.7,0.8-1c-0.2-0.1-0.3-0.2-0.4-0.3c-4.4-1.9-8.3-1.4-11.7,2.2c-0.9,0.9-2.1,1.6-3.2,2.2c-4.6,2.5-8.9,5.4-11.7,10.1
			c-0.5,0.9-1.6,1.5-2.5,2.4C373,349.6,378.2,349,381.9,345.5z M213.9,227.5c2.5,8.5,5,16.9,7.8,26.1c1-3,1.8-5.2,2.7-7.7
			c-2.7-2.2-3.5-5.4-3.1-8.9c0.5-4.8,4.3-4.4,8.1-4.8c-1.7-4.6-3.2-8.9-5-13.9C220.4,221.6,217.2,224.5,213.9,227.5z M334.7,331.3
			c-11.6,5.4-23.5,10.1-36.1,12.6c-11.2,2.2-22.5,3.4-33.9,3.7c-8,0.3-15.5-1.3-22-6.4c-1.1,0.8-2.2,1.5-3.2,2.2
			c0.9,3.7,1.2,3.7,4.3,3.9c3.3,0.1,6.5,0.4,9.8,0.9c10.1,1.7,20.1,0.9,30.1-0.3c7.3-0.9,14.5-2.2,21.7-3.7
			c11.8-2.3,22.5-7.6,33.1-13c-0.1-0.3-0.1-0.7-0.2-1C337,330.6,335.8,330.8,334.7,331.3z M444.4,208c1-4.2-3.8-10.2-8.1-10.1
			c-2.4,0-5.3,3.4-5,5.9c0.2,2.3,0.7,4.5,0.8,6.8c0.1,2.9,1.9,4.3,4.4,4.9c2.1,0.5,4.2,0.5,6.3,0.7
			C443.3,213.1,443.8,210.5,444.4,208z M362.1,261.4c3,0.1,6.1-0.3,9.5-0.5c-0.8-4.4-1.6-8.9-2.5-13.7c-5.2,2.1-10.1,4.1-15,6.1
			c0.3,4.2,0.7,8.1,1.1,12.8C356.9,262.6,359,261.3,362.1,261.4z M230.7,371.7c1-0.1,1.8-0.2,2.7-0.2c8.5,0.2,17,0.4,25.6,0.7
			c2.8,0.1,4.5-1.6,7.1-3.3c-1.5-0.2-2.3-0.4-3.1-0.4c-10.9-0.5-21.8-1-32.8-1.4c-1,0-2.3,0.4-3.1,1.1c-1.3,1.1-1.9,7.5-0.8,8.7
			c0.9,0.9,2.3,1.3,4,2.1C230.5,376,230.6,374,230.7,371.7z M461.4,220.3c0.7-2.2,2.5-4,0.5-6.6c-2.4-3-4.3-6.4-8.8-6.4
			c-0.5,0-1.1-0.1-1.6,0.1c-1.5,0.4-3.5-0.4-4.3,1.6c-0.9,2.3-1.8,4.6-0.2,7.2c2,3.2,4.4,5.3,8.4,4.9c1.9-0.2,3.9-0.2,5.5-0.3
			C461.2,220.5,461.4,220.4,461.4,220.3z M310.3,399.1c-1.2,0-2.2,0-3.1,0c2.2,2.3,4.4,4.6,6.8,7.2c1.2-1.7,2.8-3.5,4-5.5
			c0.5-0.9,0.7-2.3,0.5-3.4c-2-9-4.1-18-6.2-27c-0.2,0-0.4,0-0.6-0.1C311.3,379.8,310.8,389.4,310.3,399.1z M312.5,366.8
			c0.4-3.2,0.8-6.1,1-9c0.1-2-1.3-3.8-3.5-4.2c-1.5-0.3-3-0.3-4.6-0.2c-4.7,0.3-5.9,1.6-6.1,6.3c-0.1,2,0,3.9,0,6.3
			C303.8,366.2,308.1,366.5,312.5,366.8z M335.9,428.8c0.5-4.7,1-9.2,1.5-14.2c-3.5-0.4-6.9-0.8-10.8-1.2c-0.5,4.7-1,9.3-1.5,14.3
			C328.7,428,332.2,428.4,335.9,428.8z M302.6,374.6c-3.9,1.9-5.5,9.2-2.5,12.4c2.3,2.4,4.9,4.5,7.9,7.2c0.3-7.6,0.6-14.8,0.9-22.5
			C306.4,372.9,304.5,373.7,302.6,374.6z M310,457.2c0.5-15.4,0.9-30.8,1.3-46.3c0.1-1.9-0.3-3.6-2-5.5c-0.2,4.3-0.4,8.1-0.6,11.8
			c-0.5,12.7-1.1,25.4-1.5,38c-0.1,4-1.1,7.3-5.7,9C307.2,464.3,309.8,462,310,457.2z M428.1,202.6c-0.5-3.2-5.9-5.4-8.4-3.4
			c-0.7,0.5-1.2,1.7-1.2,2.5c-0.1,3,0,6.1,0.3,9.1c0.1,0.9,1.2,2,2.1,2.5c2.6,1.4,5.4,1.3,8.6,0.5
			C429.1,209.9,428.7,206.2,428.1,202.6z M415.6,621.2c2.2,0,4.1,0,6.4,0c-0.4-6.1-0.5-12.2-1.2-18.2c-0.5-4.5-2.5-5.9-7.8-6.2
			C416,604.8,416,612.9,415.6,621.2z M357.7,306.7c-1.3,2.4,0.8,8.3,3.2,9.7c1.6,0.9,3.2,0.5,4.4-1.4c2.1-3.2,2.5-6.7,1.9-10.4
			c-0.5-2.6-1.3-5-4.1-6.8C361.2,300.9,359.3,303.7,357.7,306.7z M355.4,241.5c-1.7,0.8-3.1,1.5-4.7,2.2c0.3,2.4,0.7,4.7,1,7.2
			c0.4-0.1,0.9-0.2,1.2-0.3c5.3-2.2,10.7-4.3,16.8-6.8c-5.4-2.8-10.3-5.3-15.7-8C354.6,238.1,355,239.7,355.4,241.5z M403.3,253.8
			c-2.8-0.6-5.6-1.4-8.4-1.7c-1.1-0.2-2.4,0.3-3.4,0.9c-2,1-2.5,2.6-1.5,4.6c1.4,3,3.6,5.4,6,7.5
			C401.5,262.3,402.7,260.5,403.3,253.8z M447.7,227c-0.3-1.9-0.3-3.8-0.9-5.6c-0.4-1.4-1.2-2.9-3.2-2.6c-3.7,0.6-7.4,0.5-10.8-1.5
			C431.3,224.6,439.1,229.5,447.7,227z M449.1,230c-4.7,1-9.9,2-14.7-2.2c-0.1,3.4,0.4,6.3,1.6,8.9c0.3,0.6,1.5,1.2,2.3,1.3
			c3.6,0.4,7.3,0.6,10.9,0.9C449.1,236,449.1,233.2,449.1,230z M393.6,284.5c4.4,0.6,8.1-0.9,11.9-2.2c-0.7-1.5-1.5-2.9-2.1-4.4
			c-1.1-2.9-3.4-4.3-6.5-4c-1.3,0.1-2.6,0.1-4.2,0.2C393.1,277.8,393.4,281.1,393.6,284.5z M30.3,524.9c0.5-2-2.1-4-3.9-3.1
			c-2.4,1.3-4.6,2.9-7.1,4.5c1.4,2.8,2.6,5.5,4.2,7.9c0.6,1,2.1,1.4,3.7,2.3C28.5,532.1,29.5,528.5,30.3,524.9z M302.2,475.9
			c-1.4-3.4-4.7-5-7.1-7.6c-2.2,1.5-4.3,2.9-6.4,4.3s-4.2,2.7-6.8,4.3C290.1,477.6,300.1,477.2,302.2,475.9z M209.5,231.6
			c3,9.7,6,19.4,9.1,29.1c2-0.7,2.5-1.9,1.9-3.6c-2.8-9.2-5.5-18.3-8.4-28C211,230.1,210.3,230.8,209.5,231.6z M27,539.9
			c-2.8,4-2.7,7.8,0.4,11.1c1.4,1.5,3.4,1.7,5.1,0.8c2.2-1.2,4.1-2.7,6.6-4.5C34.3,544.8,29.3,544.6,27,539.9z M362.5,344.6
			c-3.8-5.3-7.6-10.7-11.4-16c-2.4-3.4-4.5-7-3.5-11.8c-3.6,3.5-3.9,6.9-1.1,10.3c5.8,7.1,11.6,14.2,17.3,21.4
			c1.4,1.7,2.9,2.9,5.4,2.5C365.8,350,364.3,347.1,362.5,344.6z M10.2,550c1.1,1.7,2.1,3.8,3.5,5.5c2.2,2.7,4.7,2.5,6.6-0.5
			c2.2-3.4,2.2-3.4-1.6-8.2C15.9,547.6,12.3,545.8,10.2,550z M351.3,204.2c2.6,0,5.1,0,7.7,0c0-1.1,0-2,0-3c3-1.9,5.9-3.7,9.1-5.7
			C360.4,194.2,352.5,198.2,351.3,204.2z M239.5,454.8c-0.2,3.1-0.3,6.1-0.5,9.2c4.3,0,8.2,0,12.2,0c0.1-0.2,0.3-0.4,0.4-0.6
			c-3.2-2.2-7.7-3.4-7.3-8.6C242.6,454.8,241.2,454.8,239.5,454.8z M336.1,212.3c3.7-0.3,7.4-0.7,11.4-1.1c0.5,1.8,1,3.5,1.6,5.8
			c1.6-3.3,3.1-6.1,4.6-9.1C346.8,204.8,341.6,209,336.1,212.3z M423.5,226.6c-1.4,6,2.6,10.2,8.6,8.8c-0.3-2.7-0.6-5.4-0.9-8.2
			C428.5,226.9,426,226.8,423.5,226.6z M352.7,268.8c-2.4-0.1-4.7-0.8-6.1,1.7c-1.7,3.2-1,6.4,0.5,9.4c1.3,2.7,3.7,0.8,6,1.6
			C350.7,277,350.7,273,352.7,268.8z M366.5,345.2c2.9-3.1,5.4-6.3,8.4-8.7c3.1-2.5,6.7-4.3,10.2-6.5c-0.1-0.2-0.2-0.4-0.3-0.6
			c-1.8,0.6-3.6,1.2-5.4,1.9c-2,0.9-3.9,1.9-5.8,2.9c-1.8,1-3.8,1.9-5.3,3.2c-1.5,1.3-2.6,3.2-3.9,4.9
			C365.1,343.2,365.7,344,366.5,345.2z M360.8,273.6c1.6-1.6,2.5-3.4,3-5.6c0.3-1.2,0.9-2.4,1.4-3.8c-0.9,0-1.7,0-2.5,0
			c-3.3,0.1-4.7,1.1-5.5,4.4c-0.8,3.5-0.5,6.9,0.4,10.2C358.7,277.1,359.4,275,360.8,273.6z M89,524.2c0-2.6,0-5.1,0-7.8
			c-3.2-0.4-5.7,1.2-8.4,2.3c0.3,1.5,0.5,2.9,0.8,4.4C84,523.5,86.4,523.9,89,524.2z M420.6,217c1.7,6.2,3.4,7.8,10,6.8
			c-0.5-2.2-0.9-4.4-1.3-6.3C426.2,217.3,423.4,217.2,420.6,217z M34.8,560.9c2.5,0.1,5.1,0.7,6.5-2.2c1.3-2.6,0.7-4.6-2.4-7.5
			c-1.2,0.8-2.4,1.7-3.3,2.4C35.3,556.4,35.1,558.6,34.8,560.9z M335.1,229.8c0.7,0.3,2,0.1,2.6-0.4c1.7-1.4,1.7-3.4,1.1-5.4
			c-0.6-2.2-2.2-3.5-3.9-3.3c-1.6,0.2-2.7,2-2.7,4.7C332.4,227.1,333.1,229,335.1,229.8z M350.3,296c2,0.3,3.4-0.7,4.2-2.6
			c0.9-2.1,2-4.1,2.7-6.3c0.9-2.8,0.4-3.3-2.5-3.2c-0.4,0-0.8,0.1-1.3,0.2C352.3,288.1,351.3,292.1,350.3,296z M24.6,553.5
			c-0.2,0.7-0.3,1.7-0.8,2.6c-0.9,1.9,0,2.9,1.7,3.3c1.9,0.4,3.8,0.6,6,0.9c0.4-1.8,0.8-3.3,1.1-4.6
			C29.7,554.9,27.2,554.2,24.6,553.5z M282.1,362c-0.1,1.8-0.2,3.6-0.3,5.6c2.5,0,4.7,0,7.3,0c0.1-1.7,0.2-3.4,0.3-5.6
			C286.8,362,284.6,362,282.1,362z M368.6,289.6c-1.6,2.7-0.1,4.9,1.5,7.3c4.2-3.1,1.9-7.7,3.6-11.7
			C370,285.1,369.7,287.8,368.6,289.6z M218.6,219.7c-1.5,0.7-2.5,1.2-3.5,1.5c-2.4,0.9-4.7,2.2-7.2,2.6c-3.8,0.6-4.4,0.6-7,4.2
			C207.3,226.6,214.2,226.6,218.6,219.7z M428.2,302.2c-0.2-2.2-0.5-4.3-0.7-6.5c-2.3-0.6-4.5-1.1-6.6-1.6
			C421.3,298.2,423,301.3,428.2,302.2z M355.5,194.9c-3.5-0.3-9.1,2.7-10.3,5.4c-0.9,2,0.2,3.3,3.2,3.4
			C348.8,199.2,352,197.1,355.5,194.9z M339,327.7c1.5,0.1,2.8-1.9,2.8-4.1c0-2-1.2-4-2.5-4.1c-1.5-0.1-2.8,1.9-2.8,4.1
			C336.5,325.7,337.7,327.6,339,327.7z M353.2,326.6c3.4-2.4,6.7-4.8,10.5-7.4c-3.3-0.7-5.6-0.5-7.5,1.8c-1.2,1.4-2.7,2.5-4.1,3.8
			C352.4,325.4,352.7,325.8,353.2,326.6z M355.1,309.9c-1.5,1.8-3.1,3.2-4,5c-0.9,1.6-0.1,2.4,1.7,2.4c1.6,0,3.2-0.2,5-0.4
			C356.8,314.4,356,312.4,355.1,309.9z M43.4,551.8c0.8,1.7,2.1,2,3.4,1.2c0.9-0.6,2.1-2.1,2-2.9c-0.3-1.2-1.7-2.9-2.6-2.9
			c-1.5,0-3,1.2-4.7,2C42.3,550.3,43,551,43.4,551.8z M11.9,544.3c1.9-0.1,3.7-0.2,5.5-0.3c-0.1-3.4-0.1-3.4-7.1-4.4
			C10.8,541.3,11.3,542.7,11.9,544.3z M228.9,235.6c-0.1-0.2-0.2-0.4-0.3-0.6c-1.4,0.5-3.4,0.5-4.1,1.5c-1.3,1.9-0.5,4.1,0.9,6.4
			C226.6,240.2,227.7,237.9,228.9,235.6z M370.5,264.3c-2.4,0.1-3.1,2.3-4.2,4.8c2.8-1.5,5.2-2.1,7.8-0.7
			C373.6,266.3,372.8,264.2,370.5,264.3z M195.5,231.5c2.9,1.2,11.2-0.6,13.4-2.9C204.3,229.6,200.1,230.5,195.5,231.5z
			 M205.4,220.1c2.8,1.4,5,1,8.2-1.7C210.3,217.5,207.8,218.1,205.4,220.1z M366.2,204.7c-1.5,0.1-3,0.2-4.4,0.3
			c-0.1,0.3-0.2,0.6-0.2,0.9c1.6,0.8,3.3,1.7,5.5,2.8C366.7,207.1,366.5,206.1,366.2,204.7z M20.1,541.3c0.5,1.4,0.9,2.7,1.5,4.5
			c0.6-2.5,1.1-4.5,1.7-6.8C22.2,539.8,21.2,540.5,20.1,541.3z M354.8,319.4c-1.9,0.1-3,0.2-4.5,0.3c0.1,1.1,0.3,1.9,0.4,3.4
			C352.3,321.6,353.3,320.7,354.8,319.4z M265.6,477.3c-1.4-1.2-2.5-2.1-3.8-3.3C260.8,476.9,260.9,476.9,265.6,477.3z M66.4,529.7
			c4-1.1,4-1.1,2.6-3.7C68.2,527.2,67.4,528.3,66.4,529.7z M351.9,298.6c-2.2,1.1-2.5,1.5-2.7,5.3
			C350,302.2,350.9,300.5,351.9,298.6z M333.7,328.8c0.1,0.1,0.4,0.3,0.4,0.3c0.3-0.2,0.5-0.4,0.8-0.7c-0.2-0.2-0.3-0.3-0.5-0.5
			C334.2,328.2,333.9,328.5,333.7,328.8z"/>
		<path id="XMLID_372_" fill="#C2A1A2" d="M368.2,483.6c0.2,3.1-1.1,5.3-3.9,6.6c-5,2.4-10.1,4.7-15.1,7.1c-1.9,0.9-3.8,0.9-5.7,0
			c-3.8-1.8-7.5-3.5-11.2-5.4c-1.7-0.9-2.8-2.3-3-4.4c-0.5-6.9-1.2-13.7-1.6-20.6c-0.1-2.3,0.2-4.6,0.7-6.8
			c1.8-7.3,7.9-14.9,19.2-12.2c2.7,0.7,5.4,1.6,8,2.8c5.5,2.4,9,6.7,10.7,12.5c1.5,5.1,2.3,10.2,1.9,15.5
			C368.1,480.4,368.1,482,368.2,483.6z M332.1,486.4c0.1,1.6,0.7,2.7,2.1,3.3c3.2,1.5,6.2,3.2,9.5,4.5c1.5,0.6,3.6,0.7,5,0.1
			c4.7-1.9,9.3-4.3,14-6.4c1.9-0.9,2.7-2.3,2.6-4.4c-0.3-5.2-0.2-10.5-0.8-15.7c-1.6-12.1-11-16.8-21.3-17.3
			c-5.4-0.3-8.7,2.9-10.9,7.4c-1.9,4-2.1,8.2-1.7,12.5C331,475.7,331.6,481.1,332.1,486.4z"/>
		<path id="XMLID_371_" fill="#C2A1A2" d="M436.6,574.2c-3.9,1.1-7.7,2.5-11.7,3.3c-3.6,0.8-7.3,1.3-11,1.3
			c-6.9,0.1-13.8-0.7-20.7-0.2c-7.4,0.6-14.8,1.9-22,3.5c-17.2,3.8-34.7,4.8-52.2,4.9c-12.1,0.1-24.3,0-36.4-0.2
			c-20.8-0.4-41.1-4.1-60.9-10.4c-2.9-0.9-5.9-1.8-8.8-2.7c-1.2-0.4-2.1-0.4-2.2,1.5c2.9,0.9,5.7,1.9,8.6,2.7
			c13.2,4,26.4,8,40.2,9.2c12.3,1.1,24.7,2,37,2.1c16.5,0.1,33.1-0.1,49.6-1.2c10.1-0.6,20.1-2.7,30.1-4.8c9.6-2,19.2-3,29-2.3
			c10.1,0.7,19.9-0.2,29.4-3.9c1.6-0.6,2.6-1.1,1.9-2.9L436.6,574.2z"/>
		<path id="XMLID_368_" fill="#C2A1A2" d="M253.1,504.1c4.9,0,9.3,4.7,9.2,10c0,5.3-4.1,9.7-9,9.9c-5,0.1-9.2-4.3-9.3-9.8
			C244,508.6,248.1,504.1,253.1,504.1z M253.1,521.8c4,0,7-3.5,6.9-8c-0.1-4.3-3.3-7.5-7.1-7.4c-3.8,0.1-6.9,3.6-6.8,7.8
			C246.2,518.4,249.3,521.8,253.1,521.8z"/>
		<path id="XMLID_365_" fill="#C2A1A2" d="M295.3,525.6c-4.9-0.1-9-4.5-9-9.9c0-5.5,4.1-9.9,9.2-9.9s9.2,4.4,9.1,10
			C304.6,521.2,300.3,525.7,295.3,525.6z M295.3,523.4c3.8,0.2,7.2-3.5,7.3-7.7c0-4.2-3.3-7.9-7.1-7.8c-3.7,0.1-6.9,3.6-6.9,7.7
			C288.4,519.6,291.6,523.3,295.3,523.4z"/>
		<path id="XMLID_362_" fill="#C2A1A2" d="M267.5,515.3c0-3.7,3-6.4,6.8-6.4s6.7,2.9,6.7,6.5c0,3.6-3.1,6.5-6.9,6.4
			C270.4,521.9,267.5,519,267.5,515.3z M269.7,515.3c0,2.5,2.1,4.5,4.7,4.4c2.5,0,4.5-1.9,4.5-4.3c0-2.4-2.1-4.5-4.7-4.4
			C271.7,511.1,269.7,513,269.7,515.3z"/>
		<path id="XMLID_359_" fill="#C2A1A2" d="M253.5,429.6c0.3-6.3,0.6-12.7,0.9-19c0.3-5.3,1.9-6.8,7.1-6.6
			c10.7,0.4,21.4,0.9,32.1,1.3c4.9,0.2,6.6,2,6.4,6.9c-0.5,12.6-1,25.1-1.5,37.7c-0.2,4.7-2.2,6.4-6.8,6.3
			c-10.9-0.5-21.9-0.9-32.8-1.4c-4.5-0.2-6.3-2-6.1-6.6C253,442,253.3,435.8,253.5,429.6C253.6,429.6,253.5,429.6,253.5,429.6z
			 M261,406.1c-3.4-0.1-4.3,0.8-4.4,4.1c-0.6,12.6-1.1,25.1-1.7,37.7c-0.2,3.5,0.8,4.6,4.2,4.8c10.7,0.5,21.4,0.9,32.2,1.3
			c4.3,0.2,5-0.4,5.2-4.8c0.6-12.2,1.1-24.5,1.6-36.7c0.2-4.2-0.6-4.9-4.8-5.1c-5.4-0.2-10.7-0.5-16.1-0.7c0,0,0,0,0,0.1
			C271.7,406.5,266.4,406.3,261,406.1z"/>
		<path id="XMLID_356_" fill="#C2A1A2" d="M273,475.3c-3.9,0-7-3.1-7-7.1s3-7.2,6.9-7.3c3.8-0.1,7,3.1,7,7.1
			C279.8,472.1,276.8,475.3,273,475.3z M268,468.4c0.2,2.8,2.5,4.9,5.2,4.8c2.5-0.2,4.5-2.4,4.5-5.1c0-2.8-2.3-5-4.9-5
			C270.1,463.2,267.9,465.7,268,468.4z"/>
		<path id="XMLID_353_" fill="#C2A1A2" d="M406.9,211.2c1.2,8.6,2.2,16.7,3.3,24.9c-4.6,1.1-8.9,2.1-13.4,3.2
			c-0.2-1.1-0.5-1.9-0.6-2.8c-1-7.2-2-14.5-3-22.1C397.8,213.4,402.2,212.3,406.9,211.2z M398.5,236.6c3.2-0.8,6.1-1.4,9.4-2.2
			c-0.9-6.8-1.8-13.6-2.8-20.6c-3.2,0.8-6.1,1.5-9.4,2.3C396.6,223,397.5,229.6,398.5,236.6z"/>
		<path id="XMLID_350_" fill="#C2A1A2" d="M205.5,249.2c2.9,0,5.7,3.3,5.7,6.8c0,3.3-2.2,5.8-5,5.7c-3.1-0.1-5.6-3.3-5.5-7
			C200.8,251.7,202.9,249.2,205.5,249.2z M205.7,251.5c-1.6-0.1-2.8,1.3-2.8,3.3c-0.1,2.4,1.7,4.8,3.5,4.7c1.5,0,2.7-1.6,2.7-3.5
			C209.1,253.8,207.4,251.6,205.7,251.5z"/>
		<path id="XMLID_347_" fill="#C2A1A2" d="M201.5,235.3c2.8,0.1,5.3,3.1,5.3,6.5c0,3.1-1.9,5.5-4.4,5.6c-2.9,0.1-5.6-2.9-5.6-6.5
			C196.8,237.6,198.8,235.2,201.5,235.3z M202.1,245.1c1.4,0,2.5-1.3,2.6-3.2c0.1-2.2-1.7-4.6-3.4-4.5c-1.3,0.1-2.4,1.6-2.4,3.4
			C198.9,243,200.5,245.1,202.1,245.1z"/>
		<path id="XMLID_344_" fill="#C2A1A2" d="M337.1,235.4c2-1.1,3.8-0.6,5.5,0.6c3.2,2.3,4.3,7.5,2.3,10.9c-1.7,2.9-4.8,3.6-7.5,1.7
			c-2.4-1.7-3.4-4.2-3.4-7.1C334,238.9,334.8,236.7,337.1,235.4z M338.4,246.5c1.6,1.7,4,1.2,4.7-1c0.5-1.7,0.4-3.7,0-5.4
			c-0.6-2.3-2.8-3.4-4.5-3c-1.6,0.4-2.6,2.2-3,4.8C336.5,243.5,337.2,245.2,338.4,246.5z"/>
		<polygon id="XMLID_343_" fill="#C2A1A2" points="417,268.2 416.9,268 416.9,268.2 		"/>
		<path id="XMLID_342_" fill="#C2A1A2" d="M401.2,259.6c0.1-0.1,0.2-0.3,0.2-0.4C401.4,259.3,401.4,259.4,401.2,259.6L401.2,259.6z"
			/>
		<path id="XMLID_341_" fill="#C2A1A2" d="M400,261.6v-0.2V261.6z"/>
		<path id="XMLID_340_" fill="#C2A1A2" d="M400,261.6h-0.2H400z"/>
		<polygon id="XMLID_339_" fill="#C2A1A2" points="401.3,259.6 401.1,259.7 401.2,259.6 		"/>
		<path id="XMLID_336_" fill="#C2A1A2" d="M333.6,459.6c1.3-4,4.2-6.9,8.7-7.5c8.1-1.1,17.2,4.4,19.4,12.3c1.1,4.1,1.8,8.4,1.7,12.6
			c-0.2,9.1,1.4,8.1-7.8,12.6c-10.3,5.1-8.1,5.4-19.4-0.7c-0.2-0.1-0.4-0.2-0.6-0.3c-1.4-0.8-2.2-2-2.3-3.7
			c-0.4-4.7-0.9-9.4-1.5-15.6C332.2,467,332.4,463.2,333.6,459.6z M359.7,465.5c-1.8-6.9-9.1-11.8-16.2-11.4c-3.4,0.2-5.9,2-7.3,4.9
			c-1.1,2.5-2.1,5.4-2,8.1c0,5.8,0.7,11.6,1.2,17.3c0.1,0.8,0.9,1.6,1.4,2.4c0.2,0.2,0.5,0.4,0.8,0.5c10.2,5.2,7.1,5.1,16.7,0.5
			c0.1,0,0.2-0.1,0.3-0.1c8-4.1,6.2-2.7,7-10.7C361.1,473.2,360.7,469.2,359.7,465.5z"/>
	</g>
</g>
</svg>
